<svg width="26" height="30" viewBox="0 0 26 30" fill="none" xmlns="http://www.w3.org/2000/svg">
<path fill-rule="evenodd" clip-rule="evenodd" d="M1.08568 0.942859C1.6879 0.339891 2.50491 0.000751932 3.35711 1.70891e-06H16.2143C16.355 -0.000249749 16.4945 0.0272518 16.6247 0.080934C16.7548 0.134616 16.8731 0.213426 16.9728 0.312859L25.5443 8.88429C25.6437 8.98397 25.7225 9.10227 25.7762 9.23244C25.8299 9.3626 25.8574 9.50206 25.8571 9.64286V26.7857C25.8571 27.6382 25.5185 28.4558 24.9157 29.0586C24.3129 29.6614 23.4953 30 22.6428 30H3.35711C2.50463 30 1.68706 29.6614 1.08426 29.0586C0.481469 28.4558 0.142822 27.6382 0.142822 26.7857V3.21429C0.142822 2.36143 0.481394 1.54286 1.08568 0.942859ZM8.61782 8.46429C8.90598 8.46429 9.19132 8.40753 9.45754 8.29726C9.72376 8.18698 9.96566 8.02535 10.1694 7.8216C10.3732 7.61784 10.5348 7.37594 10.6451 7.10972C10.7554 6.84349 10.8121 6.55816 10.8121 6.27C10.8121 5.98184 10.7554 5.69651 10.6451 5.43028C10.5348 5.16406 10.3732 4.92217 10.1694 4.71841C9.96566 4.51465 9.72376 4.35302 9.45754 4.24275C9.19132 4.13247 8.90598 4.07572 8.61782 4.07572C8.03586 4.07572 7.47774 4.3069 7.06623 4.71841C6.65472 5.12992 6.42354 5.68804 6.42354 6.27C6.42354 6.85196 6.65472 7.41009 7.06623 7.8216C7.47774 8.2331 8.03586 8.46429 8.61782 8.46429ZM4.16282 18.2143C4.16282 17.475 4.76068 16.875 5.49996 16.875H20.5C20.8421 16.8938 21.1641 17.0428 21.3998 17.2915C21.6356 17.5402 21.7672 17.8696 21.7678 18.2123C21.7683 18.5549 21.6377 18.8848 21.4028 19.1342C21.1678 19.3836 20.8463 19.5337 20.5042 19.5536H5.50425C5.14885 19.5536 4.80798 19.4125 4.55647 19.1614C4.30497 18.9103 4.16339 18.5697 4.16282 18.2143ZM4.16282 24.6429C4.16282 23.9036 4.76068 23.3036 5.49996 23.3036H14.0714C14.4135 23.3224 14.7355 23.4714 14.9713 23.7201C15.207 23.9687 15.3387 24.2982 15.3392 24.6408C15.3398 24.9835 15.2092 25.3134 14.9742 25.5628C14.7392 25.8122 14.4178 25.9622 14.0757 25.9821H5.50425C5.14885 25.9821 4.80798 25.8411 4.55647 25.59C4.30497 25.3389 4.16339 24.9983 4.16282 24.6429ZM8.61996 9.93C7.11996 9.93 5.75068 10.4936 4.71568 11.4214C4.10068 11.9721 4.58068 12.8571 5.40568 12.8571H11.83C12.6571 12.8571 13.1371 11.9721 12.5221 11.4214C11.4498 10.4587 10.061 9.9274 8.61996 9.93Z" fill="#434445"/>
</svg>
