<svg width="20" height="20" viewBox="0 0 20 20" fill="none" xmlns="http://www.w3.org/2000/svg">
<g clip-path="url(#clip0_160_638)">
<path d="M0 -0.131592V20.1316H20V-0.131592H0ZM10.8839 15.6719C10.8839 17.6439 9.74107 18.544 8.07589 18.544C6.57143 18.544 5.70089 17.757 5.25446 16.8026L6.78571 15.8664C7.08036 16.3955 7.34821 16.8433 7.99554 16.8433C8.61161 16.8433 9.00446 16.5991 9.00446 15.6447V9.17227H10.8839V15.6719ZM15.3304 18.544C13.5848 18.544 12.4554 17.7027 11.9063 16.5991L13.4375 15.7035C13.8393 16.3684 14.3661 16.8614 15.2902 16.8614C16.067 16.8614 16.567 16.4679 16.567 15.9206C16.567 15.2693 16.058 15.0386 15.1964 14.6542L14.7277 14.4506C13.3705 13.8672 12.4732 13.1299 12.4732 11.5785C12.4732 10.1492 13.5491 9.06372 15.2232 9.06372C16.4196 9.06372 17.2768 9.48436 17.8929 10.588L16.4286 11.5378C16.1071 10.9543 15.7589 10.7237 15.2188 10.7237C14.6696 10.7237 14.3214 11.0765 14.3214 11.5378C14.3214 12.1077 14.6696 12.3384 15.4777 12.6957L15.9464 12.8992C17.5446 13.5913 18.442 14.3014 18.442 15.8935C18.442 17.6032 17.1116 18.544 15.3304 18.544Z" fill="#CACDCF"/>
</g>
<defs>
<clipPath id="clip0_160_638">
<rect width="20" height="20" fill="white"/>
</clipPath>
</defs>
</svg>
