<svg width="25" height="25" viewBox="0 0 25 25" fill="none" xmlns="http://www.w3.org/2000/svg">
<g clip-path="url(#clip0_160_645)">
<path d="M6.97919 12.5001C6.98336 13.6545 7.12794 14.8041 7.40974 15.9237H11.9097V9.34033H7.34724C7.10747 10.3766 6.98402 11.4364 6.97919 12.5001Z" fill="#9071E9"/>
<path d="M13.0903 9.34033V15.9237H17.5903C17.8838 14.8056 18.04 13.6559 18.0555 12.5001C18.053 11.4367 17.9319 10.3769 17.6944 9.34033H13.0903Z" fill="#9071E9"/>
<path d="M12.5 1.38892C10.3024 1.38892 8.15418 2.04057 6.32697 3.26148C4.49976 4.48238 3.07562 6.2177 2.23464 8.24799C1.39367 10.2783 1.17363 12.5124 1.60236 14.6677C2.03108 16.823 3.08931 18.8029 4.64323 20.3568C6.19715 21.9107 8.17696 22.9689 10.3323 23.3976C12.4876 23.8264 14.7217 23.6063 16.752 22.7654C18.7823 21.9244 20.5176 20.5002 21.7385 18.673C22.9594 16.8458 23.6111 14.6976 23.6111 12.5C23.6111 9.55318 22.4405 6.72702 20.3567 4.64329C18.273 2.55955 15.4468 1.38892 12.5 1.38892ZM20.9861 17.1597H18.4722C17.9969 18.6478 17.2941 20.0533 16.3889 21.3264C15.7206 21.6168 15.0217 21.8311 14.3055 21.9653C15.5887 20.5713 16.5761 18.9319 17.2083 17.1459H13.0972V22.1111H11.9236V17.1597H7.79164C8.423 18.9482 9.41049 20.5901 10.6944 21.9861C9.99298 21.8534 9.30829 21.6438 8.65275 21.3611C7.74429 20.0774 7.04142 18.6599 6.56942 17.1597H4.01386C3.79214 16.755 3.59952 16.3349 3.43747 15.9028H6.21525C5.95496 14.787 5.81987 13.6457 5.81247 12.5C5.81346 11.4381 5.92518 10.3791 6.1458 9.3403H3.30553C3.45182 8.90949 3.62818 8.48948 3.8333 8.08336H6.47914C6.97608 6.43011 7.74595 4.87158 8.75692 3.47225C9.39854 3.20721 10.0667 3.01165 10.75 2.88892C9.36795 4.37119 8.32528 6.13662 7.69442 8.06253H11.9236V2.7778H13.0972V8.08336H17.3264C16.6966 6.16054 15.6564 4.39761 14.2777 2.91669C14.96 3.03046 15.6281 3.2167 16.2708 3.47225C17.2759 4.86147 18.0433 6.40798 18.5416 8.04864H21.1597C21.3648 8.45475 21.5412 8.87477 21.6875 9.30558H18.868C19.0934 10.3555 19.2075 11.4262 19.2083 12.5C19.2047 13.6524 19.072 14.8008 18.8125 15.9236H21.5902C21.4183 16.3494 21.2164 16.7625 20.9861 17.1597Z" fill="#9071E9"/>
</g>
<defs>
<clipPath id="clip0_160_645">
<rect width="25" height="25" fill="white"/>
</clipPath>
</defs>
</svg>
