<svg width="30" height="30" viewBox="0 0 30 30" fill="none" xmlns="http://www.w3.org/2000/svg">
<g clip-path="url(#clip0_88_273)">
<path d="M15 0.833252C6.72 0.833252 0 7.17992 0 14.9999C0 22.8199 6.72 29.1666 15 29.1666C23.28 29.1666 30 22.8199 30 14.9999C30 7.17992 23.28 0.833252 15 0.833252ZM21.96 10.4666C21.735 12.7049 20.76 18.1449 20.265 20.6524C20.055 21.7149 19.635 22.0691 19.245 22.1116C18.375 22.1824 17.715 21.5733 16.875 21.0491C15.555 20.2274 14.805 19.7174 13.53 18.9241C12.045 18.0033 13.005 17.4933 13.86 16.6716C14.085 16.4591 17.925 13.1583 18 12.8608C18.0104 12.8157 18.009 12.7689 17.996 12.7245C17.9829 12.68 17.9585 12.6393 17.925 12.6058C17.835 12.5349 17.715 12.5633 17.61 12.5774C17.475 12.6058 15.375 13.9233 11.28 16.5299C10.68 16.9124 10.14 17.1108 9.66 17.0966C9.12 17.0824 8.1 16.8133 7.335 16.5724C6.39 16.2891 5.655 16.1333 5.715 15.6374C5.745 15.3824 6.12 15.1274 6.825 14.8583C11.205 13.0591 14.115 11.8691 15.57 11.3024C19.74 9.65909 20.595 9.37575 21.165 9.37575C21.285 9.37575 21.57 9.40408 21.75 9.54575C21.9 9.65908 21.945 9.81492 21.96 9.92825C21.945 10.0133 21.975 10.2683 21.96 10.4666Z" fill="#434445"/>
</g>
<defs>
<clipPath id="clip0_88_273">
<rect width="30" height="30" fill="white"/>
</clipPath>
</defs>
</svg>
