<svg width="30" height="30" viewBox="0 0 30 30" fill="none" xmlns="http://www.w3.org/2000/svg">
<path d="M15.0015 0.576904C22.9673 0.576904 29.4245 7.03412 29.4245 15C29.4245 22.9658 22.9673 29.4231 15.0015 29.4231C12.4526 29.4275 9.94846 28.7529 7.74666 27.4687L0.584161 29.4231L2.53416 22.2577C1.249 20.0552 0.573924 17.55 0.578391 15C0.578391 7.03412 7.0356 0.576904 15.0015 0.576904ZM10.0861 8.22114L9.79762 8.23267C9.61112 8.24552 9.42889 8.29451 9.26108 8.3769C9.1047 8.46562 8.96189 8.57637 8.83705 8.70575C8.66397 8.86873 8.56589 9.01008 8.4606 9.1471C7.92712 9.84071 7.63989 10.6923 7.64426 11.5673C7.64714 12.274 7.83176 12.962 8.12022 13.6053C8.71012 14.9062 9.68079 16.2836 10.9616 17.5601C11.2702 17.8673 11.5731 18.1759 11.8991 18.463C13.4906 19.864 15.387 20.8745 17.4375 21.4139L18.2568 21.5394C18.5236 21.5538 18.7904 21.5336 19.0587 21.5207C19.4787 21.4985 19.8887 21.3848 20.2601 21.1875C20.4488 21.0899 20.6332 20.984 20.8125 20.8702C20.8125 20.8702 20.8736 20.8288 20.9928 20.7404C21.1875 20.5961 21.3072 20.4937 21.4688 20.325C21.5899 20.2 21.6909 20.0548 21.7717 19.8894C21.8842 19.6543 21.9967 19.2057 22.0428 18.8322C22.0774 18.5466 22.0673 18.3908 22.063 18.2942C22.0572 18.1399 21.9289 17.9798 21.789 17.912L20.9495 17.5356C20.9495 17.5356 19.6947 16.9889 18.9274 16.6399C18.8471 16.6049 18.7611 16.5849 18.6736 16.5807C18.5749 16.5704 18.4751 16.5814 18.3811 16.613C18.287 16.6446 18.2008 16.6961 18.1284 16.7639C18.1212 16.761 18.0245 16.8433 16.9818 18.1067C16.9219 18.1871 16.8395 18.2479 16.7449 18.2813C16.6504 18.3147 16.5481 18.3192 16.451 18.2942C16.357 18.2692 16.2649 18.2373 16.1755 18.199C15.9967 18.124 15.9346 18.0952 15.812 18.0433C14.984 17.6825 14.2175 17.1944 13.5404 16.5966C13.3587 16.438 13.1899 16.2649 13.0169 16.0976C12.4495 15.5541 11.955 14.9394 11.5457 14.2687L11.4606 14.1317C11.4004 14.0391 11.351 13.9399 11.3135 13.836C11.2587 13.624 11.4015 13.4538 11.4015 13.4538C11.4015 13.4538 11.7519 13.0702 11.9149 12.8625C12.0736 12.6606 12.2077 12.4644 12.2943 12.3245C12.4644 12.0505 12.5178 11.7692 12.4284 11.5514C12.0245 10.5649 11.6072 9.58364 11.1765 8.60767C11.0914 8.4144 10.839 8.27594 10.6096 8.24854C10.5318 8.23892 10.4539 8.23123 10.376 8.22546C10.1823 8.21435 9.98814 8.21628 9.79474 8.23123L10.0861 8.22114Z" fill="#434445"/>
</svg>
