<svg width="112" height="29" viewBox="0 0 112 29" fill="none" xmlns="http://www.w3.org/2000/svg">
<path d="M19.3501 0.426369V18.5277C19.3501 21.6027 18.5199 23.9542 16.8595 25.5822C15.2246 27.2102 12.964 28.0241 10.0774 28.0241C7.01203 28.0241 4.55974 27.1585 2.72051 25.4272C0.906843 23.6958 0 21.2022 0 17.9463H7.43352C7.45907 20.091 8.23818 21.1635 9.77086 21.1635C11.1503 21.1635 11.84 20.2848 11.84 18.5277V0.426369H19.3501ZM37.5502 28.0241C35.0212 28.0241 32.6966 27.4299 30.5764 26.2411C28.4563 25.0267 26.7703 23.36 25.5186 21.241C24.2924 19.0963 23.6794 16.6801 23.6794 13.9927C23.6794 11.3053 24.2924 8.9021 25.5186 6.78316C26.7703 4.6384 28.4563 2.97168 30.5764 1.783C32.6966 0.594334 35.0212 0 37.5502 0C40.1047 0 42.4291 0.594334 44.5239 1.783C46.644 2.97168 48.3173 4.6384 49.5434 6.78316C50.7696 8.9021 51.3826 11.3053 51.3826 13.9927C51.3826 16.6801 50.7696 19.0963 49.5434 21.241C48.3173 23.36 46.644 25.0267 44.5239 26.2411C42.4037 27.4299 40.0791 28.0241 37.5502 28.0241ZM37.5502 20.9697C39.466 20.9697 40.9731 20.3366 42.0716 19.0704C43.1955 17.8041 43.7575 16.1117 43.7575 13.9927C43.7575 11.8221 43.1955 10.1166 42.0716 8.87625C40.9731 7.61005 39.466 6.97696 37.5502 6.97696C35.6087 6.97696 34.0889 7.61005 32.9904 8.87625C31.8919 10.1166 31.3428 11.8221 31.3428 13.9927C31.3428 16.1374 31.8919 17.8429 32.9904 19.1091C34.0889 20.3495 35.6087 20.9697 37.5502 20.9697ZM72.6145 23.2953H63.0352L61.5791 27.7528H53.6858L63.5333 0.426369H72.193L82.0021 27.7528H74.0705L72.6145 23.2953ZM70.7369 17.4812L67.8248 8.64368L64.951 17.4812H70.7369ZM98.1675 28.0241C95.6386 28.0241 93.314 27.4299 91.1938 26.2411C89.0737 25.0267 87.3877 23.36 86.1359 21.241C84.9098 19.0963 84.2967 16.6801 84.2967 13.9927C84.2967 11.3053 84.9098 8.9021 86.1359 6.78316C87.3877 4.6384 89.0737 2.97168 91.1938 1.783C93.314 0.594334 95.6386 0 98.1675 0C100.722 0 103.047 0.594334 105.141 1.783C107.261 2.97168 108.935 4.6384 110.161 6.78316C111.387 8.9021 112 11.3053 112 13.9927C112 16.6801 111.387 19.0963 110.161 21.241C108.935 23.36 107.261 25.0267 105.141 26.2411C103.021 27.4299 100.696 28.0241 98.1675 28.0241ZM98.1675 20.9697C100.083 20.9697 101.59 20.3366 102.689 19.0704C103.813 17.8041 104.375 16.1117 104.375 13.9927C104.375 11.8221 103.813 10.1166 102.689 8.87625C101.59 7.61005 100.083 6.97696 98.1675 6.97696C96.2261 6.97696 94.7063 7.61005 93.6078 8.87625C92.5093 10.1166 91.9602 11.8221 91.9602 13.9927C91.9602 16.1374 92.5093 17.8429 93.6078 19.1091C94.7063 20.3495 96.2261 20.9697 98.1675 20.9697Z" fill="#0A0A0A"/>
</svg>
